<svg class="icon" viewBox="0 0 1024 1024" xmlns="http://www.w3.org/2000/svg" width="200" height="200"><defs><style/></defs><path d="M777.3 681.1s6.8-50.3-13.5-60.2c-20.3-9.8-378.5-28.3-510.3 0 0 0-20.3 8.2-13.5 60.2 6.8 52 161.9 77.4 268.5 77.4s269.4-38.7 268.8-77.4z" fill="#EFD080"/><path d="M508.4 773.5c-59.1 0-124.6-7.3-175.2-19.6-67.8-16.5-104.2-40.3-108.1-70.9-7.9-60.4 17.6-73.9 22.8-76 .8-.3 1.6-.6 2.5-.8 77.5-16.6 221.5-16.3 300.4-14.6 81.2 1.7 203 7.8 219.6 15.8 13.6 6.6 21.3 22.2 22.8 46.4.8 12.9-.4 24.8-.8 28.3-.2 8.5-4.1 16.6-11.5 24.2-23.4 23.8-82.4 40.2-115.4 47.9-52.3 12.1-110.9 19.3-157.1 19.3zM259.6 635c-3.2 3.6-8.4 16.2-4.8 44.2 1.6 12.4 24.9 30.8 85.5 45.5 48.5 11.8 111.3 18.8 168.2 18.8 49.4 0 113.3-8.7 166.6-22.6 69.5-18.1 86.4-35.9 87.2-39.7 0-.8 0-1.3.1-2.1 2.7-20.5-.5-41.5-4.9-44.5-12.9-3.9-100.6-10.8-212-13.1C373 618.1 293 628.2 259.6 635zm.9-.8z" fill="#83394A"/><path d="M842.2 389.1c-4.8 0-9-3-10.6-7.5-7.8-21.9-20.6-34.9-41.5-41.9-4.3-1.5-7.4-5.4-7.7-9.9-.3-4.6 2.2-8.8 6.3-10.8l3.7-1.8c9.4-4.5 16.9-8.1 22.6-13.8 6.1-6.1 10.8-13.5 16.2-25.8 1.7-3.9 5.4-6.5 9.6-6.7 4.2-.3 8.2 1.9 10.4 5.5 16 26.9 16 26.9 43.7 43.3 3.8 2.2 5.9 6.4 5.5 10.8-.4 4.3-3.3 8-7.4 9.5-20.1 7.2-32.9 20.4-40.2 41.6-1.5 4.4-5.7 7.5-10.6 7.5.1 0 .1 0 0 0zm-23.3-60.4c9.4 6.1 17.1 13.8 23.3 23.4 6.3-9.7 14.2-17.6 23.7-23.8-11.1-7.2-16.4-12.5-23.5-23.3-3.1 5-6.9 9.9-11.5 14.4-3.7 3.6-7.7 6.6-12 9.3z" fill="#EFD080"/><path d="M726.1 812.5c-39.9 0-79.7.1-119.6-.1-5.2 0-13.2 2-13-6.1.2-7.5 8.1-6 13.4-6 79.7-.1 159.4-.1 239.1 0 4.8 0 12-1.6 12.2 5.5.3 8.2-7.4 6.6-12.6 6.6-39.7.1-79.6.1-119.5.1zM849.8 775c-20.4 0-40.7.1-61.1-.1-4.9 0-12 1-12-5.9-.1-6.9 6.9-6.1 11.9-6.1 41.2 0 82.4-.1 123.6 0 4.8 0 11.7-1.3 11.2 6.4-.4 6.8-6.9 4.7-11.1 4.7-20.8.2-41.7.1-62.5.1v.9z" fill="#E5BB54"/><path d="M139.8 584.9h-.5c-10.1-.1-20.2-4.6-27.7-12.4-7.5-7.7-11.7-18-11.5-28.1.2-10.2 4.8-20.4 12.7-27.9 7.7-7.4 17.9-11.5 27.8-11.3 21.3.5 39.2 19 39 40.3-.1 10.2-4.5 20.3-12.2 27.8-7.6 7.4-17.6 11.6-27.6 11.6zm0-57.2c-3.9 0-8 1.8-11.4 5-3.6 3.4-5.7 7.8-5.7 12.1-.1 4.2 1.8 8.5 5.1 12s7.7 5.5 11.9 5.5c4.3 0 8.6-1.8 12-5.1 3.4-3.3 5.4-7.7 5.4-11.9.1-9.2-7.9-17.4-17-17.6h-.3zm28.5 17.7z" fill="#EC8092"/><path d="M186.5 616.3c-1 5.3-3.9 8.8-9.2 8.6-5.1-.1-8.9-3.3-8.8-8.6 0-5.8 3.6-9.4 9.7-9 5.5.2 7.5 4.3 8.3 9z" fill="#986242"/><path d="M119 646.2c6 1.3 10.4 3 10.4 9.6 0 6-2.6 9.4-8.9 9.7-6.5.4-9.5-3.5-10-8.9-.5-6 4.2-8.5 8.5-10.4z" fill="#874F41"/><path d="M360.4 567.1h-53c-19.3 0-36.5 16.5-36.5 25.8 0 9.2-7.8 37.7 96.6 37.7h303.2c17 0 67.2-6.6 70.1-31.7 2.9-25.2-7.8-31.8-380.4-31.8z" fill="#EC8092"/><path d="M670.7 645.5H367.5c-54.4 0-86.7-7.3-101.8-23.1-10.6-11-10-23.2-9.8-28.4v-1.2c0-19.8 26.5-40.8 51.5-40.8h53c339.2 0 372.9 5.8 389 23.9 8.1 9.1 6.9 19.9 6.3 24.5-4.2 37-62.8 45.1-85 45.1zM285.9 594c0 .4 0 .8-.1 1.3-.2 3.7-.1 4.7 1.5 6.3 4 4.2 19.8 13.9 80.2 13.9h303.2c22.7 0 54.1-9.1 55.2-18.4.1-.8.1-1.3.2-1.8-4.7-2.7-21-6.9-75.2-9.6-53.5-2.6-140.3-3.7-290.5-3.7h-53c-10.6.1-19.7 8.6-21.5 12zm441.2 2.1zm-441.4-1.6z" fill="#83394A"/><path d="M353.1 440.2h-55.6c-20.3 0-38.3 10.1-38.3 15.7s-8.2 23 101.4 23h318.3c17.9 0 70.6-4 73.6-19.3s-8.1-19.4-399.4-19.4z" fill="#FFB56C"/><path d="M678.9 493.9H360.6c-81.6 0-101.4-9.6-110.1-18.9-7.2-7.8-6.5-16.3-6.3-19.1v-.2c.3-19.6 31.6-30.4 53.3-30.4h55.6c172.4 0 265.4.8 320.9 2.7 66.6 2.3 81.2 6.2 89.2 15.8 6.2 7.6 4.6 15.9 4.1 18.7-3.5 17.9-26.3 24.1-43.2 27.3-17.9 3.2-36.8 4.1-45.2 4.1zm62.8-29.5zm-460.4-6.5c10.5 2.7 32.9 6 79.3 6h318.3c12.9 0 27.4-1.4 39.1-3.6-48.9-4.2-169.7-5.1-364.9-5.1h-55.6c-6.1 0-11.8 1.2-16.2 2.7zm-37.1-2z" fill="#83394A"/><path d="M274.2 486.7h465.4s56.9-3.4 35.9 28.8-35.9 18.6-35.9 18.6-9 40.6-44.9 16.9c0 0-43.4 54.2-59.9-5.1 0 0-31.4 62.7-58.4 11.9 0 0-32.8 42.3-49.3-3.4 0 0-34.5 40.6-58.4 3.4 0 0-22.4 84.7-64.3 6.8 0 0-31.4 49.1-50.9-3.4 0 0-61.3 36.2-47.9-19.1 0 0-49.4 17.4-50.9-18.1.1-.1-62.8-37.3 19.5-37.3z" fill="#45CE99"/><path d="M438 612.5c-15.3 0-27.4-11.6-35.8-22.9-7.6 6.4-17.6 11.9-29.1 10.6-10.6-1.1-19.5-7.5-26.5-18.9-13.8 5.8-33 10.6-46.3.7-6.6-4.9-10.3-11.9-11.3-21.1-10.9 1.1-23.7.2-33.8-6.6-5.4-3.7-11.8-10.2-14.3-21.5-11.7-8-27.8-22.5-23.2-39.1 5.3-19.4 31.6-22.1 56.6-22.1h464.9c10.2-.6 41.6-.6 52.5 18.1 4 6.9 6.6 18.3-3.6 33.9-11 16.9-23.1 26.4-36 28-1.2.2-2.4.2-3.5.3-3.9 7.1-10.3 15-20.2 19-6.9 2.8-17.2 4.4-30.5-1.2-10 9.6-27 22-45.3 18.3-7.8-1.6-14.5-5.8-20-12.5-8.2 8.9-19.1 17-32.2 17.1h-.4c-9.5 0-18.1-4-25.7-11.9-8.1 6.1-18.8 11.4-30.8 9.5-6.1-1-13.7-4-20.5-12.3-8.6 5.9-20 11.3-32.7 10.5-4.5-.3-10-1.5-15.7-4.5-6.6 12.9-17.2 26.6-33 28.4-1.2.2-2.4.2-3.6.2zm-33.6-62.9h.6c5.3.2 10.1 3.2 12.6 7.9 12.8 23.8 20.4 25.1 20.5 25.1 3.8-.4 12.3-14.4 16.1-28.6 1.5-5.7 6.3-10 12.2-10.9 5.9-.9 11.7 1.7 14.9 6.7 5.4 8.4 9.7 8.7 11 8.8 8.3.6 19.5-9.2 23.3-13.8 3.5-4.1 8.8-6 14.1-5.1 5.3.9 9.6 4.6 11.4 9.7 3.2 8.9 6.4 11.2 7 11.3 3 .5 11.6-5.8 16.4-12 3.1-4 8.1-6.2 13.1-5.8 5.1.4 9.6 3.4 12 7.9 4.6 8.8 8.7 11.9 10.3 11.9 5.3-.1 16.1-12.9 21.4-23.5 2.8-5.5 8.7-8.8 14.9-8.2 6.2.6 11.3 4.9 13 10.9 3.4 12.4 7.5 16.3 9.3 16.7 5.1 1 17.5-8.4 24.4-17 4.8-6.1 13.5-7.4 20-3.1 6 4 11.3 5.7 14.1 4.6 3.9-1.5 7-8.8 7.9-12.4 1.2-5.2 5-9.4 10.1-11 4.6-1.5 9.5-.6 13.3 2.2 1.5-.2 7-2.9 14.6-14.6.8-1.2 1.3-2.1 1.6-2.8-4.5-2-15.2-3.3-24-2.8H274.2c-11 0-18.1.7-22.6 1.5 3.1 2.7 7.1 5.6 10.8 7.9 4.3 2.6 7.1 7.2 7.3 12.3.2 4.8 1.7 5.8 2.2 6.2 5.3 3.6 20.3 1.3 28.7-1.6 5.2-1.8 11-.6 15 3.1 4.1 3.7 5.8 9.3 4.5 14.6-1.7 6.9-1.6 10.6-1.4 12.3 5.1.3 17.6-4.1 27.1-9.6 3.8-2.2 8.5-2.7 12.6-1.2 4.2 1.5 7.5 4.7 9 8.9 4.8 12.8 8.7 14.5 8.8 14.5 2.8.2 11.1-7.2 15.4-13.9 2.9-4.5 7.7-7.1 12.8-7.1zM749.6 523zm0 0zm0-.1s0 .1 0 0c0 .1 0 0 0 0z" fill="#83394A"/><path d="M220.5 438.2c10.1-60.4 77.2-125.5 125.7-158.9 57.4-39.5 126.8-58.9 196.3-50.9 113.4 12.9 219.6 100.8 260.1 213.4-95.3.2-190.6.1-285.9.1h-150c-47.1 0-100.1 1.4-146.2-3.7z" fill="#EFD080"/><path d="M312.9 457.1c-32 0-64.1-.6-94-3.9-4.1-.5-7.8-2.6-10.3-5.9s-3.5-7.5-2.8-11.5c11.7-69.5 88.5-138.8 132-168.8 61.9-42.6 135.2-61.6 206.5-53.5 58.4 6.6 115.5 31.8 165.2 72.6 49.4 40.6 86.5 92.7 107.3 150.5 1.7 4.6 1 9.7-1.8 13.7s-7.4 6.4-12.2 6.4c-73.8.2-148.9.1-221.4.1H366.9c-8.6 0-17.3 0-26.2.1-9.3.1-18.5.2-27.8.2zm-73.5-32.2c32.3 2.4 67.2 2.2 101.1 2 8.9 0 17.7-.1 26.3-.1h214.5c65.3 0 132.6 0 199.2-.1-43.5-97.9-139.3-172.1-239.6-183.5-64.1-7.3-130.2 9.9-186.1 48.4-46.4 31.9-99 85.1-115.4 133.3z" fill="#83394A"/><path d="M385.9 362c-1.3 6.6-4.9 10.9-11.5 10.8-6.4-.1-11-4.1-11-10.7 0-7.2 4.5-11.7 12-11.3 7 .4 9.5 5.4 10.5 11.2zm82.8-43.1c-1.3 6.6-4.9 10.9-11.5 10.8-6.4-.1-11-4.1-11-10.7 0-7.2 4.5-11.7 12-11.3 6.9.4 9.5 5.4 10.5 11.2zm11.2 52.9c-1.3 6.6-4.9 10.9-11.5 10.8-6.4-.1-11-4.1-11-10.7 0-7.2 4.5-11.7 12-11.3 7 .3 9.5 5.3 10.5 11.2zm76.1-30.2c-1.3 6.6-4.9 10.9-11.5 10.8-6.4-.1-11-4.1-11-10.7 0-7.2 4.5-11.7 12-11.3 6.9.4 9.5 5.4 10.5 11.2zm93.3 16.6c-1.3 6.6-4.9 10.9-11.5 10.8-6.4-.1-11-4.1-11-10.7 0-7.2 4.5-11.7 12-11.3 6.9.4 9.5 5.4 10.5 11.2zM520.1 697.4c-1.3 6.6-4.9 10.9-11.5 10.8-6.4-.1-11-4.1-11-10.7 0-7.2 4.5-11.7 12-11.3 6.9.4 9.5 5.4 10.5 11.2zm169.4-13.6c-1.3 6.6-4.9 10.9-11.5 10.8-6.4-.1-11-4.1-11-10.7 0-7.2 4.5-11.7 12-11.3 6.9.4 9.5 5.4 10.5 11.2zm-283.8-1.4c-1.3 6.6-4.9 10.9-11.5 10.8-6.4-.1-11-4.1-11-10.7 0-7.2 4.5-11.7 12-11.3 7 .4 9.5 5.4 10.5 11.2zM458 715c-1.3 6.6-4.9 10.9-11.5 10.8-6.4-.1-11-4.1-11-10.7 0-7.2 4.5-11.7 12-11.3 7 .4 9.5 5.4 10.5 11.2zm132.5-28.6c-1.3 6.6-4.9 10.9-11.5 10.8-6.4-.1-11-4.1-11-10.7 0-7.2 4.5-11.7 12-11.3 7 .4 9.5 5.4 10.5 11.2z" fill="#986242"/></svg>