<?xml version="1.0" standalone="no"?>
<!DOCTYPE svg PUBLIC "-//W3C//DTD SVG 20010904//EN"
 "http://www.w3.org/TR/2001/REC-SVG-20010904/DTD/svg10.dtd">
<svg version="1.0" xmlns="http://www.w3.org/2000/svg"
 width="300.000000pt" height="300.000000pt" viewBox="0 0 300.000000 300.000000"
 preserveAspectRatio="xMidYMid meet">
<metadata>
Created by potrace 1.11, written by Peter Selinger 2001-2013
</metadata>
<g transform="translate(0.000000,300.000000) scale(0.100000,-0.100000)"
fill="#000000" stroke="none">
<path d="M942 2455 c-18 -15 -39 -42 -47 -61 -7 -18 -23 -55 -35 -81 -12 -26
-97 -219 -189 -428 l-167 -380 -171 -5 c-119 -4 -175 -9 -186 -18 -23 -19 -34
-60 -32 -117 4 -117 10 -120 279 -119 225 0 250 3 282 32 11 11 60 109 108
218 49 110 100 224 113 254 14 30 34 75 45 100 39 92 43 100 48 100 5 0 70
-260 245 -972 93 -380 94 -383 122 -415 24 -27 99 -49 135 -40 66 17 73 30
243 402 64 140 84 183 150 325 36 80 81 176 98 215 18 38 43 94 57 124 l26 54
73 -169 c41 -93 81 -177 90 -188 38 -43 57 -46 336 -46 l267 0 29 29 c26 27
29 35 29 99 0 59 -3 73 -25 96 -29 31 -5 28 -247 30 -116 1 -201 5 -206 11 -6
6 -60 125 -121 265 -64 144 -124 267 -138 283 -50 52 -134 54 -181 4 -12 -12
-40 -63 -63 -112 -22 -50 -61 -132 -85 -184 -24 -51 -44 -95 -44 -97 0 -2 -25
-55 -55 -119 -30 -63 -55 -117 -55 -119 0 -2 -24 -55 -54 -117 -29 -63 -68
-147 -87 -186 -18 -40 -35 -73 -39 -73 -3 0 -27 87 -54 193 -26 105 -52 206
-57 222 -8 26 -126 495 -134 535 -2 8 -26 105 -55 215 -60 236 -72 255 -162
263 -48 4 -58 1 -86 -23z"/>
</g>
</svg>
