<?xml version="1.0" standalone="no"?>
<!DOCTYPE svg PUBLIC "-//W3C//DTD SVG 20010904//EN"
 "http://www.w3.org/TR/2001/REC-SVG-20010904/DTD/svg10.dtd">
<svg version="1.0" xmlns="http://www.w3.org/2000/svg"
 width="160.000000pt" height="160.000000pt" viewBox="0 0 160.000000 160.000000"
 preserveAspectRatio="xMidYMid meet">
<metadata>
Created by potrace 1.14, written by Peter Selinger 2001-2017
</metadata>
<g transform="translate(0.000000,160.000000) scale(0.100000,-0.100000)"
fill="#000000" stroke="none">
<path d="M1415 1531 c-81 -28 -123 -51 -214 -118 -47 -35 -89 -63 -93 -63 -5
0 -26 -11 -47 -24 -36 -23 -38 -23 -34 -5 3 10 10 19 16 19 8 0 8 3 0 11 -38
38 -126 -47 -198 -191 -57 -114 -63 -121 -144 -193 -52 -46 -57 -48 -99 -42
-25 3 -53 10 -63 15 -10 6 -30 10 -46 10 -27 1 -27 1 -9 15 27 20 14 29 -43
30 -48 0 -48 0 -33 23 22 33 2 50 -35 32 -16 -8 -32 -16 -36 -18 -5 -3 -2 6 6
19 20 32 28 71 18 87 -6 10 -16 6 -40 -17 l-32 -30 7 60 c9 79 -16 76 -59 -6
l-16 -30 -1 57 c0 31 -4 59 -9 62 -17 11 -44 -47 -45 -96 0 -56 -9 -45 -27 35
-7 32 -17 61 -22 64 -30 18 -32 -89 -3 -148 8 -16 11 -29 6 -29 -5 0 -27 34
-50 75 -42 76 -59 96 -61 73 -6 -56 15 -107 73 -173 22 -25 36 -45 31 -45 -5
0 -13 4 -18 9 -6 5 -21 12 -33 16 -22 6 -23 5 -13 -14 6 -11 33 -32 59 -47 26
-15 60 -35 77 -45 l29 -18 -26 -10 c-32 -12 -92 -71 -113 -111 -9 -17 -13 -30
-9 -30 3 0 -6 -14 -20 -31 -37 -43 -38 -79 -3 -117 25 -27 37 -28 37 -4 0 42
80 81 168 82 68 0 110 -18 147 -66 17 -21 54 -62 82 -91 29 -29 49 -53 44 -53
-5 0 -26 -16 -47 -35 -47 -42 -138 -105 -153 -105 -6 0 -27 9 -47 19 -31 17
-39 18 -67 6 -20 -8 -34 -23 -40 -42 -36 -119 -35 -119 -15 -144 17 -21 19
-22 15 -4 -2 11 3 33 11 50 14 28 16 28 26 11 6 -11 20 -29 31 -40 16 -17 20
-18 23 -5 1 8 16 23 32 33 20 11 30 25 30 42 0 13 3 24 8 25 4 0 17 2 30 5 22
4 105 -36 118 -58 13 -20 -6 -19 -40 2 -48 29 -68 20 -122 -52 -44 -60 -52
-89 -34 -118 8 -12 10 -10 10 9 0 13 13 36 29 52 17 15 35 37 41 48 11 22 44
28 55 11 3 -5 2 -10 -4 -10 -10 0 -45 -56 -46 -73 0 -4 -6 -11 -13 -16 -10 -6
-10 -10 3 -21 8 -7 15 -20 15 -29 1 -10 6 -7 15 11 8 15 24 30 35 33 11 4 30
23 42 44 12 21 33 43 48 49 28 13 43 7 135 -49 22 -13 44 -23 49 -21 4 1 14
-2 21 -8 11 -9 13 -6 10 15 -1 14 3 32 10 38 6 7 14 33 18 59 7 52 35 128 47
128 23 0 43 -58 45 -129 1 -42 7 -86 14 -99 15 -28 51 -44 68 -30 9 7 24 5 48
-7 20 -9 58 -22 85 -29 40 -11 50 -10 54 0 4 11 11 11 38 1 46 -17 104 -16
100 2 -2 8 3 11 10 8 7 -3 30 -12 50 -21 31 -13 38 -14 45 -2 4 8 17 14 28 14
52 -1 60 15 25 47 -12 11 -18 26 -15 35 6 20 -3 28 -67 64 -27 14 -69 38 -96
52 -26 15 -49 30 -52 34 -3 4 -48 34 -100 67 -94 58 -96 60 -167 173 -39 63
-70 116 -69 118 2 1 16 -3 32 -9 69 -29 124 -20 181 30 l33 27 -20 22 c-24 25
-15 29 16 8 19 -14 25 -11 74 35 41 38 51 52 42 61 -16 16 -15 29 1 27 27 -3
37 2 37 19 0 10 -6 24 -12 31 -11 10 -10 12 2 11 53 -7 75 17 44 51 -15 17
-15 19 -2 14 28 -11 61 14 55 42 -4 21 -1 24 16 19 30 -7 60 12 54 35 -6 24
-5 24 46 -4 24 -13 63 -24 90 -26 45 -2 48 -1 38 17 -6 11 -33 37 -61 58 -27
21 -50 39 -50 41 0 1 23 -9 51 -22 64 -29 91 -24 57 12 -26 28 -83 59 -143 80
-39 13 -38 13 35 8 41 -3 86 -6 100 -8 16 -1 26 4 28 14 5 28 -120 62 -216 57
-78 -3 -101 5 -45 15 52 9 255 75 267 87 17 17 -22 35 -74 32 -57 -3 -134 -20
-212 -46 -54 -18 -98 -32 -98 -31 0 5 124 97 203 149 62 41 84 62 75 67 -16
11 -13 11 -73 -10z m-1135 -1266 c0 -12 -20 -35 -30 -35 -10 0 -31 51 -25 60
7 12 55 -10 55 -25z"/>
</g>
</svg>
